<?xml version="1.0" encoding="UTF-8" standalone="no"?>
<!-- Created with Inkscape (http://www.inkscape.org/) -->

<svg
   width="445.38037mm"
   height="353.22842mm"
   viewBox="0 0 445.38037 353.22842"
   version="1.1"
   id="svg1247"
   inkscape:version="1.2.1 (9c6d41e410, 2022-07-14)"
   sodipodi:docname="grow-students.svg"
   xmlns:inkscape="http://www.inkscape.org/namespaces/inkscape"
   xmlns:sodipodi="http://sodipodi.sourceforge.net/DTD/sodipodi-0.dtd"
   xmlns="http://www.w3.org/2000/svg"
   xmlns:svg="http://www.w3.org/2000/svg">
  <sodipodi:namedview
     id="namedview1249"
     pagecolor="#ffffff"
     bordercolor="#666666"
     borderopacity="1.0"
     inkscape:showpageshadow="2"
     inkscape:pageopacity="0.0"
     inkscape:pagecheckerboard="0"
     inkscape:deskcolor="#d1d1d1"
     inkscape:document-units="mm"
     showgrid="false"
     inkscape:zoom="0.35723204"
     inkscape:cx="666.23363"
     inkscape:cy="895.77631"
     inkscape:window-width="1920"
     inkscape:window-height="1030"
     inkscape:window-x="0"
     inkscape:window-y="0"
     inkscape:window-maximized="1"
     inkscape:current-layer="layer1" />
  <defs
     id="defs1244">
    <clipPath
       id="id2">
      <path
         d="m 571,667.02734 h 87 V 744 h -87 z m 0,0"
         clip-rule="nonzero"
         id="path7" />
    </clipPath>
    <clipPath
       id="id3">
      <path
         d="m 582,667.02734 h 65 V 744 h -65 z m 0,0"
         clip-rule="nonzero"
         id="path10" />
    </clipPath>
    <clipPath
       id="id8">
      <path
         d="m 1173,1062 h 16.5 v 114 H 1173 Z m 0,0"
         clip-rule="nonzero"
         id="path25" />
    </clipPath>
    <clipPath
       id="id9">
      <path
         d="m 1071,1057 h 118.5 v 109 H 1071 Z m 0,0"
         clip-rule="nonzero"
         id="path28" />
    </clipPath>
    <clipPath
       id="id10">
      <path
         d="m 1111,1079 h 78.5 v 128 H 1111 Z m 0,0"
         clip-rule="nonzero"
         id="path31" />
    </clipPath>
    <clipPath
       id="id11">
      <path
         d="m 1189,1118 h 0.5 v 89 h -0.5 z m 0,0"
         clip-rule="nonzero"
         id="path34" />
    </clipPath>
    <clipPath
       id="id12">
      <path
         d="m 1101,1102 h 88.5 v 98 H 1101 Z m 0,0"
         clip-rule="nonzero"
         id="path37" />
    </clipPath>
  </defs>
  <g
     inkscape:label="Layer 1"
     inkscape:groupmode="layer"
     id="layer1"
     transform="translate(131.59043,63.665323)">
    <path
       fill="#ffffff"
       d="m 224.27946,129.20215 c -0.11989,1.22509 -0.26045,2.4474 -0.41617,3.66145 l 1.01699,0.13229 c 0.16123,-1.22643 0.30041,-2.45978 0.42168,-3.6945 l -1.0225,-0.0992 m -1.9389,12.7193 c -0.18742,0.90537 -0.38448,1.80661 -0.59256,2.70372 l 1.00183,0.23287 c 0.20809,-0.90537 0.4079,-1.81486 0.59669,-2.72436 l -1.00183,-0.21223 h -0.004 m -1.47725,6.2811 c -0.78962,2.97657 -1.68672,5.9049 -2.68856,8.78636 l 0.97014,0.33627 c 1.00873,-2.90492 1.9141,-5.85668 2.70785,-8.85804 l -0.98943,-0.26459 m -3.63389,11.39776 c -0.43271,1.15341 -0.88057,2.29993 -1.3491,3.44096 l 0.94947,0.38862 c 0.47267,-1.14932 0.92466,-2.30685 1.3615,-3.47267 l -0.96187,-0.35691 m -5.16351,11.80564 c -0.41203,0.82546 -0.83647,1.64677 -1.27331,2.45981 l 0.90537,0.48507 c 0.44098,-0.8213 0.86541,-1.65089 1.28571,-2.48324 l -0.91777,-0.46164 m -3.05511,5.69683 c -1.52687,2.66376 -3.14882,5.26408 -4.8631,7.79967 l 0.84474,0.57326 c 1.73495,-2.5521 3.3693,-5.17588 4.90719,-7.86444 l -0.88883,-0.50849 m -6.44509,10.07209 c -0.71382,1.00182 -1.4428,1.99538 -2.18832,2.9724 l 0.81718,0.62011 c 0.74965,-0.98527 1.4869,-1.98575 2.20761,-2.99582 l -0.83647,-0.59669 m -8.01605,10.07897 c -0.60909,0.68901 -1.2292,1.37389 -1.85483,2.05189 l 0.74965,0.69589 c 0.63252,-0.68488 1.25677,-1.37389 1.87413,-2.06703 l -0.76895,-0.68075 m -4.40558,4.71565 c -2.14699,2.18281 -4.37941,4.28293 -6.69038,6.29348 l 0.67386,0.77308 c 2.33026,-2.03122 4.58198,-4.14651 6.74963,-6.34587 l -0.73311,-0.72069 m -8.79327,8.08768 c -0.94533,0.78549 -1.90307,1.55857 -2.86769,2.31648 l 0.63252,0.80479 c 0.97289,-0.7607 1.9389,-1.54203 2.8925,-2.33165 l -0.65733,-0.78962 m -10.31048,7.69221 c -0.76481,0.51262 -1.53789,1.01424 -2.3151,1.50622 l 0.54846,0.8654 c 0.78548,-0.49611 1.56269,-1.00185 2.33577,-1.5186 l -0.56913,-0.85302 m -5.45152,3.4327 c -2.63205,1.55441 -5.32336,3.01379 -8.0753,4.37113 l 0.45613,0.92192 c 2.77261,-1.36977 5.48735,-2.84427 8.14007,-4.4111 l -0.52503,-0.88195 h 0.004 m -10.55852,5.56176 c -1.11484,0.51678 -2.23243,1.01699 -3.3569,1.50206 l 0.39963,0.94121 c 1.13826,-0.4892 2.26825,-0.98944 3.38859,-1.51035 l -0.43132,-0.93292 m -11.92555,4.7873 c -0.87367,0.2963 -1.74597,0.5843 -2.62792,0.86127 l 0.30869,0.97705 c 0.88883,-0.28112 1.77077,-0.56913 2.64721,-0.86543 l -0.32798,-0.97289 m -6.16121,1.9141 c -2.93522,0.82547 -5.91178,1.54203 -8.93244,2.14697 l 0.20395,1.00598 c 3.04546,-0.6091 6.04546,-1.33392 9.00548,-2.16351 l -0.27699,-0.98944 m -11.64855,2.65688 c -1.20854,0.21632 -2.41846,0.40788 -3.64078,0.58427 l 0.14883,1.01698 c 1.22921,-0.17914 2.45153,-0.3762 3.66833,-0.58839 l -0.17638,-1.01286 m -12.77304,1.55441 c -0.91777,0.0634 -1.83968,0.11574 -2.76021,0.15984 l 0.0441,1.02115 c 0.93293,-0.04 1.86173,-0.0924 2.78363,-0.15572 l -0.0675,-1.02527 m -6.44922,0.27146 c -0.6215,0.008 -1.24161,0.0123 -1.86724,0.0123 -2.45566,0 -4.894794,-0.0717 -7.314628,-0.21636 l -0.05926,1.02111 c 2.439127,0.14471 4.898928,0.22049 7.373888,0.22049 0.62838,0 1.25815,-0.004 1.8824,-0.0123 l -0.011,-1.02528 h -0.004 M 94.130656,237.5242 c -1.229212,-0.10058 -2.450151,-0.22049 -3.668339,-0.35691 l -0.115753,1.01699 c 1.229208,0.14055 2.462554,0.26046 3.700032,0.3652 l 0.08406,-1.02528 m -12.749612,-1.73909 c -0.905369,-0.17226 -1.810742,-0.35691 -2.707845,-0.55259 l -0.216352,1.0046 c 0.905373,0.1929 1.819011,0.38171 2.732653,0.55397 l 0.191544,-1.00598 m -6.300389,-1.38215 c -2.988967,-0.7414 -5.932457,-1.59441 -8.824959,-2.55213 l -0.323836,0.97426 c 2.920062,0.96464 5.888355,1.82591 8.900746,2.57144 l 0.248049,-0.99357 m -11.448744,-3.45338 c -1.165818,-0.41617 -2.319236,-0.84888 -3.464388,-1.29811 l -0.373447,0.95359 c 1.154797,0.45202 2.319239,0.88886 3.493326,1.31054 l 0.344509,-0.96602 m -11.888333,-4.98023 c -0.829582,-0.40375 -1.65916,-0.81305 -2.480469,-1.23747 l -0.468535,0.91362 c 0.829578,0.42446 1.663291,0.8406 2.503897,1.24576 l 0.445107,-0.92191 m -5.740909,-2.97244 c -2.69131,-1.48138 -5.315095,-3.06475 -7.87411,-4.7432 l -0.560863,0.85715 c 2.579687,1.69499 5.2269,3.28937 7.938879,4.78454 l 0.496094,-0.89849 m -10.169924,-6.28523 c -1.012857,-0.70142 -2.018824,-1.41386 -3.008256,-2.14284 l -0.609092,0.82543 c 1.001832,0.73727 2.010558,1.45383 3.03306,2.15939 l 0.584288,-0.84198 m -10.202994,-7.86031 c -0.69591,-0.60085 -1.389062,-1.20992 -2.078083,-1.82591 l -0.684883,0.76066 c 0.691773,0.62153 1.389063,1.23748 2.094618,1.84246 l 0.672483,-0.77721 h -0.0041 m -4.781793,-4.33394 c -2.215886,-2.1153 -4.346332,-4.31465 -6.398233,-6.59392 l -0.760677,0.68489 c 2.067059,2.2958 4.218175,4.51446 6.449219,6.65042 l 0.709691,-0.74139 m -8.22003,-8.67333 c -0.802019,-0.93017 -1.586121,-1.87551 -2.359202,-2.82914 l -0.7978842,0.6422 c 0.7772152,0.9646 1.5709652,1.91407 2.3798712,2.85528 l 0.777215,-0.66834 m -7.8506854,-10.192 c -0.5250322,-0.75653 -1.0376607,-1.52273 -1.5434029,-2.29164 l -0.8571372,0.56497 c 0.5098733,0.77308 1.0293915,1.54616 1.5544272,2.31236 l 0.8461129,-0.58569 m -3.513995,-5.4005 c -1.59852443,-2.60314 -3.0964542,-5.27515 -4.497917,-8.00364 l -0.9136416,0.46852 c 1.4138664,2.75195 2.9241964,5.44463 4.53925902,8.07255 L 1.2632546,180.2516 m -5.7271289,-10.47171 c -0.5333012,-1.10106 -1.0500643,-2.2159 -1.5502926,-3.33763 l -0.9384454,0.42167 c 0.5057423,1.12865 1.0266398,2.25034 1.5668308,3.36106 l 0.9219072,-0.4451 m -4.9719621,-11.84977 c -0.3086806,-0.86953 -0.6090916,-1.73909 -0.9012376,-2.61691 l -0.972894,0.32523 c 0.292145,0.88057 0.596691,1.76251 0.909507,2.6362 l 0.9646246,-0.34452 m -2.0105586,-6.13364 c -0.869541,-2.92005 -1.630218,-5.88973 -2.283407,-8.89801 l -1.001836,0.22048 c 0.657324,3.03308 1.42627,6.02481 2.30408,8.96966 l 0.981163,-0.29213 m -2.836002,-11.60583 c -0.232889,-1.20579 -0.445106,-2.41571 -0.640789,-3.63389 l -1.014236,0.16397 c 0.201196,1.22647 0.413413,2.44877 0.649058,3.66144 l 1.005967,-0.19152 m -1.750109,-12.75101 c -0.07717,-0.91362 -0.144692,-1.83554 -0.201193,-2.75745 l -1.021126,0.0606 c 0.0565,0.93292 0.119888,1.85896 0.199814,2.78363 l 1.022505,-0.0868 m -0.369313,-6.44232 c -0.03583,-1.23748 -0.05512,-2.48462 -0.05512,-3.73035 0,-1.83003 0.03996,-3.64906 0.119888,-5.45567 l -1.021126,-0.0482 c -0.08406,1.82728 -0.125402,3.65731 -0.125402,5.50389 0,1.25815 0.02067,2.51217 0.0565,3.76206 l 1.02526,-0.0318 m 0.220487,-11.95035 c 0.08406,-1.23059 0.184654,-2.45565 0.304546,-3.67386 l -1.021126,-0.10058 c -0.119892,1.2306 -0.224621,2.46807 -0.304546,3.70555 l 1.021126,0.0689 m 1.542023,-12.775774 c 0.16123,-0.909532 0.333484,-1.814901 0.512632,-2.716142 l -1.008726,-0.203941 c -0.180523,0.913659 -0.352778,1.825907 -0.512628,2.743694 l 1.012857,0.176389 h -0.0041 m 1.285709,-6.321073 c 0.697287,-3.001363 1.502061,-5.957252 2.411568,-8.866294 l -0.977028,-0.304553 c -0.921908,2.932466 -1.730817,5.913156 -2.430862,8.937943 l 0.996322,0.232904 m 3.276975,-11.506624 c 0.3968746,-1.169952 0.8089084,-2.327486 1.2416151,-3.480929 l -0.960494,-0.361033 c -0.4327031,1.161698 -0.8543851,2.335778 -1.2540161,3.513985 l 0.972895,0.327977 m 4.7914417,-11.961354 c 0.3927405,-0.84201 0.7923707,-1.675695 1.1975148,-2.499784 l -0.9177761,-0.457517 c -0.4120304,0.837847 -0.8130399,1.678481 -1.209915,2.524583 l 0.9343074,0.432718 h -0.00413 m 2.8842336,-5.789155 c 1.44142543,-2.711979 2.98345247,-5.364692 4.6219395,-7.948524 l -0.8695408,-0.54846 c -1.6495149,2.607253 -3.2039421,5.279263 -4.6577711,8.011915 l 0.9053724,0.485069 M 3.7271958,50.425187 C 4.4120822,49.399926 5.1093687,48.38569 5.821814,47.383858 L 4.9894807,46.787166 c -0.7220938,1.014236 -1.4262701,2.035362 -2.115291,3.068891 l 0.8530061,0.56913 M 11.430431,40.100926 c 0.588423,-0.705556 1.189245,-1.409736 1.794206,-2.102888 l -0.77308,-0.676617 c -0.613227,0.704176 -1.214053,1.409732 -1.810742,2.126312 l 0.789616,0.653193 m 4.262261,-4.846529 c 2.07808,-2.247579 4.245737,-4.415233 6.491937,-6.498826 l -0.695907,-0.752409 c -2.264117,2.102884 -4.451065,4.285697 -6.549817,6.553949 l 0.753787,0.697286 m 8.539703,-8.353665 c 0.920531,-0.817178 1.854839,-1.617818 2.800174,-2.403299 l -0.657324,-0.785484 c -0.953604,0.789619 -1.894801,1.598524 -2.819467,2.419837 l 0.676617,0.768946 m 10.073461,-8.007781 c 0.749652,-0.537436 1.50206,-1.062468 2.268251,-1.579231 l -0.577398,-0.848872 c -0.768946,0.520898 -1.529623,1.054199 -2.287545,1.590256 l 0.593936,0.837847 h 0.0028 m 5.343966,-3.598058 c 2.579688,-1.638488 5.226897,-3.180515 7.934742,-4.623319 L 47.100918,9.7703358 C 44.3724,11.22141 41.704518,12.779971 39.101406,14.429483 l 0.54846,0.86541 m 10.38354,-5.8883593 c 1.096917,-0.549836 2.197972,-1.0858924 3.311426,-1.602659 L 52.913505,6.873702 c -1.121724,0.5208975 -2.235179,1.0624644 -3.34174,1.6150591 l 0.464396,0.9177726 h -0.0028 M 61.805919,4.2499171 C 62.667194,3.9302122 63.535359,3.6132625 64.4049,3.3087165 L 64.06866,2.3399534 c -0.877813,0.3073047 -1.754244,0.6242509 -2.623785,0.9522249 l 0.361044,0.9577388 m 6.100576,-2.1028873 c 2.907661,-0.9136416 5.85942,-1.722547 8.860787,-2.42397157 l -0.23289,-0.99769793 c -3.024795,0.70555558 -6.004112,1.51859905 -8.936578,2.4446408 l 0.308681,0.9770287 m 11.560362,-3.01652538 c 1.20165,-0.25218322 2.407434,-0.48506952 3.620107,-0.69729002 L 82.90782,-2.5768872 c -1.222318,0.2163516 -2.440506,0.4492413 -3.649045,0.701421 l 0.208082,1.00597062 M 92.184772,-2.8166632 c 0.916397,-0.092329 1.83417,-0.1722579 2.756077,-0.2397796 l -0.07993,-1.0266398 c -0.926041,0.073036 -1.854838,0.1529644 -2.776745,0.2452899 l 0.100594,1.0211295 m 6.436819,-0.4644003 c 1.850713,-0.08406 3.709683,-0.1281571 5.583813,-0.1281571 1.20578,0 2.4033,0.019297 3.60081,0.052366 l 0.0331,-1.0266399 c -1.20578,-0.031679 -2.41983,-0.050987 -3.63389,-0.050987 -1.88653,0 -3.7648,0.044097 -5.632042,0.1281572 l 0.04823,1.0252604 m 11.948962,0.035828 c 1.23335,0.063391 2.4598,0.1488299 3.68074,0.2480486 l 0.0841,-1.0211259 c -1.23334,-0.1005981 -2.46668,-0.184658 -3.7083,-0.2480487 l -0.0565,1.021126 m 12.79785,1.3504792 c 0.91363,0.143316 1.82314,0.3004115 2.72438,0.4685313 l 0.18741,-1.0101016 c -0.91226,-0.1681198 -1.83004,-0.3238395 -2.75194,-0.4726658 l -0.15985,1.0142361 m 6.34173,1.18511119 c 3.01239,0.64905824 5.98068,1.4111112 8.90075,2.27514161 l 0.29214,-0.98116322 c -2.949,-0.87367539 -5.94072,-1.64262158 -8.97654,-2.29581088 l -0.21222,1.00183249 h -0.004 m 11.5397,3.09645421 c 1.17822,0.3775816 2.34817,0.7730773 3.50573,1.1864905 l 0.34451,-0.9660044 C 143.9301,2.191127 142.75188,1.794252 141.56676,1.4097771 l -0.31694,0.9770322 m 12.0413,4.60816 c 0.8406,0.3762023 1.68258,0.7606772 2.51491,1.1575522 l 0.44098,-0.9260417 C 155.4064,6.826846 154.55753,6.4382401 153.70728,6.0565239 l -0.41616,0.9384454 m 5.83185,2.7919047 c 2.73265,1.397332 5.40742,2.900768 8.01605,4.499293 l 0.53193,-0.873676 c -2.62655,-1.610924 -5.32337,-3.125389 -8.0822,-4.5392586 l -0.46578,0.9136416 m 10.35872,5.972419 c 1.03766,0.665589 2.05879,1.350476 3.07302,2.047762 l 0.58016,-0.844737 c -1.02113,-0.705556 -2.05466,-1.390438 -3.09646,-2.0643 l -0.55672,0.861275 m 10.43864,7.544756 c 0.71795,0.580158 1.42627,1.165822 2.13182,1.762513 l 0.66421,-0.78548 c -0.71244,-0.600827 -1.42902,-1.193384 -2.15525,-1.779048 l -0.64078,0.802015 m 4.91133,4.185106 c 2.27927,2.047762 4.48275,4.183722 6.59804,6.398228 l 0.74001,-0.70831 c -2.13458,-2.236555 -4.35322,-4.387674 -6.64904,-6.45473 l -0.68488,0.764812 h -0.004 m 8.48465,8.417056 c 0.82821,0.905372 1.64538,1.827279 2.4474,2.760211 l 0.77721,-0.668348 c -0.8089,-0.941201 -1.63022,-1.871377 -2.46806,-2.785015 l -0.75655,0.693152 m 8.1635,9.948058 c 0.54433,0.741384 1.08176,1.489661 1.60955,2.243445 l 0.83785,-0.589799 c -0.5333,-0.760677 -1.07349,-1.513085 -1.62195,-2.262738 l -0.82545,0.609092 m 3.67661,5.291667 c 1.67431,2.55626 3.2563,5.180049 4.74321,7.864476 l 0.8971,-0.497487 c -1.49793,-2.707852 -3.09232,-5.352296 -4.78317,-7.931983 l -0.85714,0.564994 m 6.04959,10.292575 c 0.56361,1.08451 1.11759,2.182813 1.65364,3.287995 l 0.92191,-0.447851 c -0.54157,-1.113473 -1.09829,-2.220031 -1.67156,-3.314207 l -0.90813,0.474063 h 0.004 m 5.33439,11.692644 c 0.33761,0.85852 0.66559,1.719792 0.98254,2.587978 l 0.96049,-0.355565 c -0.31971,-0.873654 -0.64906,-1.743216 -0.98943,-2.608615 l -0.9536,0.376202 m 2.19521,6.070247 c 0.96187,2.892531 1.81901,5.833252 2.5604,8.820857 l 0.99769,-0.248074 c -0.75378,-3.012369 -1.61505,-5.980677 -2.58381,-8.897973 l -0.97428,0.32519 m 3.19705,11.513539 c 0.26872,1.193377 0.5209,2.399136 0.75241,3.609058 l 1.00597,-0.195686 c -0.23289,-1.218177 -0.48507,-2.432226 -0.75655,-3.642148 l -1.00183,0.228776 m 2.14285,12.687579 c 0.10473,0.91366 0.19981,1.83004 0.28387,2.75195 l 1.02251,-0.0923 c -0.0841,-0.92879 -0.18052,-1.85483 -0.28939,-2.77675 l -1.01699,0.11712 m 0.565,6.42994 c 0.14745,2.45565 0.22462,4.93477 0.22462,7.43451 0,3.08543 -0.11714,6.15019 -0.34452,9.17911 l 1.02113,0.0758 c 0.22876,-3.0565 0.34865,-6.14193 0.34865,-9.25492 0,-2.51904 -0.0758,-5.01882 -0.22876,-7.49928 l -1.02112,0.0648"
       fill-opacity="1"
       fill-rule="nonzero"
       id="path52"
       style="stroke-width:0.352778" />
    <path
       fill="#53a0dd"
       d="M 101.48935,218.01809 H 95.193099 V 66.41737 h 6.296251 v 151.60072"
       fill-opacity="1"
       fill-rule="nonzero"
       id="path54"
       style="stroke-width:0.352778" />
    <path
       fill="#ed84c4"
       d="m 107.79113,218.01809 h -6.30178 V 66.41737 h 6.30178 v 151.60072"
       fill-opacity="1"
       fill-rule="nonzero"
       id="path56"
       style="stroke-width:0.352778" />
    <path
       fill="#f8d73c"
       d="m 114.08738,218.01809 h -6.29625 V 66.41737 h 6.29625 v 151.60072"
       fill-opacity="1"
       fill-rule="nonzero"
       id="path58"
       style="stroke-width:0.352778" />
    <path
       fill="#40bc80"
       d="m 120.38915,218.01809 h -6.30177 V 66.41737 h 6.30177 v 151.60072"
       fill-opacity="1"
       fill-rule="nonzero"
       id="path60"
       style="stroke-width:0.352778" />
    <path
       fill="#bae9fb"
       d="m 126.68541,218.01809 h -6.29626 V 66.41737 h 6.29626 v 151.60072"
       fill-opacity="1"
       fill-rule="nonzero"
       id="path62"
       style="stroke-width:0.352778" />
    <path
       fill="#9c442b"
       d="m 93.787498,29.055982 c -0.257693,-2.419833 -2.367467,-3.25217 -4.699109,-1.858973 L 68.946981,39.247955 c -2.330263,1.394573 -4.389053,4.514452 -4.577842,6.934288 l -2.512166,32.441768 c -0.187413,2.419844 2.932465,3.333468 5.331633,2.022969 l 2.692686,-1.466215 c 2.39503,-1.309158 7.694966,-16.781781 7.694966,-16.781781 0.580153,-2.375712 3.216342,-5.056012 5.855282,-5.957253 l 7.507553,-2.559015 c 2.638943,-0.901234 4.59438,-8.240664 4.3422,-10.6605 L 93.787498,29.055982"
       fill-opacity="1"
       fill-rule="nonzero"
       id="path64"
       style="stroke-width:0.352778" />
    <path
       fill="#e26541"
       d="M 95.10077,29.055982 C 94.844456,26.636149 93.74616,25.795543 91.420031,27.18874 L 71.274489,39.239686 c -2.327508,1.398707 -4.386298,4.518586 -4.573711,6.938423 l -2.512163,32.437647 c -0.187413,2.423972 0.600823,3.341723 2.999991,2.031224 l 2.692686,-1.466215 c 2.39503,-1.309158 9.004103,-16.781781 9.004103,-16.781781 0.585664,-2.375712 3.220473,-5.056012 5.860796,-5.957253 l 7.506173,-2.559015 c 2.640324,-0.901234 4.594381,-8.240664 4.342198,-10.6605 L 95.10077,29.055982"
       fill-opacity="1"
       fill-rule="nonzero"
       id="path66"
       style="stroke-width:0.352778" />
    <path
       fill="#9c442b"
       d="m 128.091,29.055982 c 0.25632,-2.419833 2.36748,-3.25217 4.69912,-1.858973 l 20.14416,12.050946 c 2.32751,1.394573 4.3863,4.514452 4.57509,6.934288 l 2.51078,32.441768 c 0.18879,2.419844 -2.93109,3.333468 -5.32749,2.022969 l -2.69131,-1.466215 c -2.39917,-1.309158 -7.6991,-16.781781 -7.6991,-16.781781 -0.57602,-2.375712 -3.21634,-5.056012 -5.85666,-5.957253 l -7.50618,-2.559015 c -2.64032,-0.901234 -4.59438,-8.240664 -4.33806,-10.6605 L 128.091,29.055982"
       fill-opacity="1"
       fill-rule="nonzero"
       id="path68"
       style="stroke-width:0.352778" />
    <path
       fill="#e26541"
       d="m 126.77774,29.055982 c 0.25631,-2.419833 1.35323,-3.260439 3.68074,-1.867242 l 20.14554,12.050946 c 2.33026,1.398707 4.38492,4.518586 4.57371,6.938423 l 2.51216,32.437647 c 0.18741,2.423972 -0.60083,3.341723 -2.99723,2.031224 l -2.69131,-1.466215 c -2.39917,-1.309158 -9.00824,-16.781781 -9.00824,-16.781781 -0.58153,-2.375712 -3.22047,-5.056012 -5.86079,-5.957253 l -7.50618,-2.559015 c -2.64032,-0.901234 -4.59438,-8.240664 -4.33806,-10.6605 l 1.48966,-14.166234"
       fill-opacity="1"
       fill-rule="nonzero"
       id="path70"
       style="stroke-width:0.352778" />
    <path
       fill="#f9a73b"
       d="m 93.398892,76.865661 h 35.053158 c 1.94717,-3.529189 4.11345,-10.832784 4.81073,-14.582424 3.54156,-19.041728 7.07347,-58.277234 4.03352,-77.474686 -0.74552,-4.694975 -13.46757,-25.134039 -13.46757,-25.134039 H 98.048394 c 0,0 -12.722049,20.439064 -13.466192,25.134039 -3.037194,19.197452 0.49196,58.432958 4.033521,77.474686 0.697286,3.741385 2.587953,11.208986 4.783169,14.582424"
       fill-opacity="1"
       fill-rule="nonzero"
       id="path72"
       style="stroke-width:0.352778" />
    <path
       fill="#fbc127"
       d="m 97.832043,76.865661 h 26.189617 c 1.45796,-3.529189 3.07578,-10.832784 3.59668,-14.582424 2.64445,-19.041728 5.28753,-58.277234 3.01239,-77.474686 -0.55673,-4.694975 -10.06243,-25.134039 -10.06243,-25.134039 h -19.25947 c 0,0 -9.504328,20.439064 -10.061057,25.134039 -2.272383,19.197452 0.367937,58.432958 3.012395,77.474686 0.519518,3.741385 1.933388,11.208986 3.571875,14.582424"
       fill-opacity="1"
       fill-rule="nonzero"
       id="path74"
       style="stroke-width:0.352778" />
    <g
       clip-path="url(#id2)"
       id="g78"
       transform="matrix(0.3527778,0,0,0.3527778,-105.83926,-298.98603)">
      <path
         fill="#29406d"
         d="m 571.41016,743.94141 43.07812,-76.89063 43.09375,76.89063 z m 0,0"
         fill-opacity="1"
         fill-rule="nonzero"
         id="path76" />
    </g>
    <g
       clip-path="url(#id3)"
       id="g82"
       transform="matrix(0.3527778,0,0,0.3527778,-105.83926,-298.98603)">
      <path
         fill="#334f87"
         d="m 582.50391,743.94141 31.98437,-76.89063 31.98828,76.89063 z m 0,0"
         fill-opacity="1"
         fill-rule="nonzero"
         id="path80" />
    </g>
    <path
       fill="#ffffff"
       d="m 125.06346,-5.4321825 c 0,7.7996984 -6.32107,14.124895 -14.1249,14.124895 -7.79832,0 -14.123512,-6.3251966 -14.123512,-14.124895 0,-7.8038295 6.325192,-14.1304015 14.123512,-14.1304015 7.80383,0 14.1249,6.326572 14.1249,14.1304015"
       fill-opacity="1"
       fill-rule="nonzero"
       id="path84"
       style="stroke-width:0.352778" />
    <path
       fill="#bae9fb"
       d="m 123.32024,-5.4321825 c 0,6.8378286 -5.53972,12.3830546 -12.38168,12.3830546 -6.83645,0 -12.384427,-5.545226 -12.384427,-12.3830546 0,-6.8433355 5.547977,-12.3871855 12.384427,-12.3871855 6.84196,0 12.38168,5.54385 12.38168,12.3871855"
       fill-opacity="1"
       fill-rule="nonzero"
       id="path86"
       style="stroke-width:0.352778" />
    <path
       fill="#ffffff"
       d="m 127.60318,35.550678 c 0,9.201161 -7.46346,16.664616 -16.66462,16.664616 -9.20116,0 -16.663234,-7.463455 -16.663234,-16.664616 0,-9.202541 7.462074,-16.665996 16.663234,-16.665996 9.20116,0 16.66462,7.463455 16.66462,16.665996"
       fill-opacity="1"
       fill-rule="nonzero"
       id="path88"
       style="stroke-width:0.352778" />
    <path
       fill="#bae9fb"
       d="m 125.54852,35.550678 c 0,8.068413 -6.54154,14.609961 -14.60996,14.609961 -8.06703,0 -14.608582,-6.541548 -14.608582,-14.609961 0,-8.068417 6.541552,-14.611341 14.608582,-14.611341 8.06842,0 14.60996,6.542924 14.60996,14.611341"
       fill-opacity="1"
       fill-rule="nonzero"
       id="path90"
       style="stroke-width:0.352778" />
    <path
       fill="#d6f2fc"
       d="m 110.93856,50.160639 c -0.2632,0 -0.51952,-0.02343 -0.77997,-0.03996 L 98.686425,27.614553 c 0.937066,-1.442805 2.118045,-2.700955 3.487815,-3.730346 l 13.06656,25.631512 c -1.32981,0.407899 -2.73541,0.632516 -4.19337,0.64492 0,0 -0.004,0 -0.004,0 -0.0207,0 -0.0441,0 -0.0648,0 -0.003,0 -0.003,0 -0.007,0 -0.0124,0 -0.0207,0 -0.0331,0"
       fill-opacity="1"
       fill-rule="nonzero"
       id="path92"
       style="stroke-width:0.352778" />
    <path
       fill="#d6f2fc"
       d="M 120.70472,46.390326 107.89448,21.260422 c 0.98529,-0.203952 1.99953,-0.321085 3.04408,-0.321085 0.008,0 0.0124,0 0.0207,0 0.76894,0 1.52549,0.07993 2.26274,0.197059 l 10.728,21.03989 c -0.81717,1.598524 -1.92374,3.024794 -3.24528,4.21404"
       fill-opacity="1"
       fill-rule="nonzero"
       id="path94"
       style="stroke-width:0.352778" />
    <path
       fill="#d6f2fc"
       d="m 110.93856,6.9508721 c -0.74,0 -1.46485,-0.07717 -2.17041,-0.2011962 L 99.806769,-10.832713 c 0.781351,-1.610928 1.894801,-3.037198 3.264571,-4.167188 l 10.98021,21.5414944 c -0.98943,0.2563143 -2.01882,0.4051441 -3.08405,0.4092787 0,0 0,0 -0.004,0 -0.008,0 -0.0165,0 -0.0248,0"
       fill-opacity="1"
       fill-rule="nonzero"
       id="path96"
       style="stroke-width:0.352778" />
    <path
       fill="#d6f2fc"
       d="M 119.54304,3.4644326 108.79571,-17.623686 c 0.69729,-0.119888 1.40974,-0.195682 2.14285,-0.195682 0.008,0 0.0207,0 0.0289,0 1.16996,0.0041 2.29444,0.176389 3.36104,0.480935 l 8.23102,16.1478532 c -0.64906,1.77491328 -1.68672,3.3651686 -3.01652,4.6550124"
       fill-opacity="1"
       fill-rule="nonzero"
       id="path98"
       style="stroke-width:0.352778" />
    <path
       fill="#29406d"
       d="M 129.12453,81.243668 H 92.756727 v -4.378007 h 36.367803 v 4.378007"
       fill-opacity="1"
       fill-rule="nonzero"
       id="path100"
       style="stroke-width:0.352778" />
    <path
       fill="#e9166f"
       d="M 0.24212513,289.56309 H 206.83073 V 245.79246 H 0.24212513 Z m 0,0"
       fill-opacity="1"
       fill-rule="nonzero"
       id="path106"
       style="stroke-width:0.352778" />
    <path
       fill="#fbc127"
       d="m 20.398692,289.56309 h 9.613195 v -43.77063 h -9.613195 z m 0,0"
       fill-opacity="1"
       fill-rule="nonzero"
       id="path108"
       style="stroke-width:0.352778" />
    <path
       fill="#fbc127"
       d="m 12.991737,289.56309 h 2.547994 v -43.77063 h -2.547994 z m 0,0"
       fill-opacity="1"
       fill-rule="nonzero"
       id="path110"
       style="stroke-width:0.352778" />
    <path
       fill="#fbc127"
       d="m 34.87085,289.56309 h 2.552129 V 245.79246 H 34.87085 Z m 0,0"
       fill-opacity="1"
       fill-rule="nonzero"
       id="path112"
       style="stroke-width:0.352778" />
    <path
       fill="#fbc127"
       d="m 177.06097,289.56309 h 9.6132 v -43.77063 h -9.6132 z m 0,0"
       fill-opacity="1"
       fill-rule="nonzero"
       id="path114"
       style="stroke-width:0.352778" />
    <path
       fill="#fbc127"
       d="m 169.64988,289.56309 h 2.55213 v -43.77063 h -2.55213 z m 0,0"
       fill-opacity="1"
       fill-rule="nonzero"
       id="path116"
       style="stroke-width:0.352778" />
    <path
       fill="#fbc127"
       d="m 191.53313,289.56309 h 2.55213 v -43.77063 h -2.55213 z m 0,0"
       fill-opacity="1"
       fill-rule="nonzero"
       id="path118"
       style="stroke-width:0.352778" />
    <path
       fill="#e81465"
       d="m 206.83073,289.56309 h -12.74547 v -21.88461 h 12.74547 v 21.88461 m -15.2976,0 h -4.85896 v -21.88461 h 4.85896 v 21.88461 m -14.47216,0 h -4.85896 v -21.88461 h 4.85896 v 21.88461 m -7.41109,0 H 37.422979 V 267.67848 H 169.64988 v 21.88461 m -134.77903,0 h -4.858963 v -21.88461 h 4.858963 v 21.88461 m -14.472158,0 h -4.858961 v -21.88461 h 4.858961 v 21.88461 m -7.406955,0 H 0.24212513 V 267.67848 H 12.991737 v 21.88461"
       fill-opacity="1"
       fill-rule="nonzero"
       id="path120"
       style="stroke-width:0.352778" />
    <path
       fill="#f48129"
       d="m 20.398692,289.56309 h 9.613195 v -21.88461 h -9.613195 z m 0,0"
       fill-opacity="1"
       fill-rule="nonzero"
       id="path122"
       style="stroke-width:0.352778" />
    <path
       fill="#f48129"
       d="m 12.991737,289.56309 h 2.547994 v -21.88461 h -2.547994 z m 0,0"
       fill-opacity="1"
       fill-rule="nonzero"
       id="path124"
       style="stroke-width:0.352778" />
    <path
       fill="#f48129"
       d="m 34.87085,289.56309 h 2.552129 V 267.67848 H 34.87085 Z m 0,0"
       fill-opacity="1"
       fill-rule="nonzero"
       id="path126"
       style="stroke-width:0.352778" />
    <path
       fill="#f48129"
       d="m 177.06097,289.56309 h 9.6132 v -21.88461 h -9.6132 z m 0,0"
       fill-opacity="1"
       fill-rule="nonzero"
       id="path128"
       style="stroke-width:0.352778" />
    <path
       fill="#f48129"
       d="m 169.64988,289.56309 h 2.55213 v -21.88461 h -2.55213 z m 0,0"
       fill-opacity="1"
       fill-rule="nonzero"
       id="path130"
       style="stroke-width:0.352778" />
    <path
       fill="#f48129"
       d="m 191.53313,289.56309 h 2.55213 v -21.88461 h -2.55213 z m 0,0"
       fill-opacity="1"
       fill-rule="nonzero"
       id="path132"
       style="stroke-width:0.352778" />
    <path
       fill="#4957b0"
       d="M -30.878112,245.81589 H 207.14768 V 223.93128 H -30.878112 Z m 0,0"
       fill-opacity="1"
       fill-rule="nonzero"
       id="path134"
       style="stroke-width:0.352778" />
    <path
       fill="#faf894"
       d="M -22.126192,240.19624 H 113.15031 V 229.55089 H -22.126192 Z m 0,0"
       fill-opacity="1"
       fill-rule="nonzero"
       id="path136"
       style="stroke-width:0.352778" />
    <path
       fill="#fbc127"
       d="m 187.65258,245.81589 h 4.38491 v -21.88461 h -4.38491 z m 0,0"
       fill-opacity="1"
       fill-rule="nonzero"
       id="path138"
       style="stroke-width:0.352778" />
    <path
       fill="#fbc127"
       d="m 184.27087,245.81589 h 1.16169 v -21.88461 h -1.16169 z m 0,0"
       fill-opacity="1"
       fill-rule="nonzero"
       id="path140"
       style="stroke-width:0.352778" />
    <path
       fill="#fbc127"
       d="m 194.25338,245.81589 h 1.16169 v -21.88461 h -1.16169 z m 0,0"
       fill-opacity="1"
       fill-rule="nonzero"
       id="path142"
       style="stroke-width:0.352778" />
    <path
       fill="#424eaa"
       d="m 207.14768,245.81589 h -11.73261 v -10.94024 h 11.73261 v 10.94024 m -12.8943,0 h -2.21589 v -10.94024 h 2.21589 v 10.94024 m -6.6008,0 h -2.22002 v -10.94024 h 2.22002 v 10.94024 m -3.38171,0 H -30.878112 v -10.94024 h 8.75192 v 5.32059 H 113.15031 v -5.32059 h 71.12056 v 10.94024"
       fill-opacity="1"
       fill-rule="nonzero"
       id="path144"
       style="stroke-width:0.352778" />
    <path
       fill="#bebb8f"
       d="M -22.126192,240.19624 H 113.15031 v -5.32059 H -22.126192 Z m 0,0"
       fill-opacity="1"
       fill-rule="nonzero"
       id="path146"
       style="stroke-width:0.352778" />
    <path
       fill="#c19635"
       d="m 192.03749,245.81589 h -4.38491 v -10.94024 h 4.38491 v 10.94024"
       fill-opacity="1"
       fill-rule="nonzero"
       id="path148"
       style="stroke-width:0.352778" />
    <path
       fill="#c19635"
       d="m 184.27087,245.81589 h 1.16169 v -10.94024 h -1.16169 z m 0,0"
       fill-opacity="1"
       fill-rule="nonzero"
       id="path150"
       style="stroke-width:0.352778" />
    <path
       fill="#c19635"
       d="m 194.25338,245.81589 h 1.16169 v -10.94024 h -1.16169 z m 0,0"
       fill-opacity="1"
       fill-rule="nonzero"
       id="path152"
       style="stroke-width:0.352778" />
    <path
       fill="#e2e3c6"
       d="m 216.06084,134.65783 -21.08261,17.17862 c 0,0 -22.00727,-1.69087 -53.17988,17.25856 -12.78957,7.77211 -15.30449,8.53694 -19.6398,14.00087 -7.42625,9.35824 -10.85894,6.29348 -13.45792,15.1033 0,0 -0.30868,-8.3082 5.37848,-17.65819 5.68441,-9.35137 10.203,-21.14462 26.43767,-31.51301 16.23191,-10.36422 51.14864,-23.70088 75.54406,-14.37015"
       fill-opacity="1"
       fill-rule="nonzero"
       id="path154"
       style="stroke-width:0.352778" />
    <path
       fill="#fafcdb"
       d="m 107.51,198.51198 c 0,0 0.71796,-2.06706 1.91134,-5.70921 0.57189,-1.82591 1.59853,-3.91365 2.58796,-6.35692 0.46026,-1.23472 1.17684,-2.45977 1.85346,-3.77856 0.70142,-1.305 1.35461,-2.72437 2.15525,-4.1341 1.73909,-2.74782 3.4575,-5.81671 5.74504,-8.74505 0.54433,-0.74965 1.09692,-1.50618 1.65778,-2.27513 0.54433,-0.7772 1.23748,-1.45934 1.85485,-2.20761 0.63665,-0.73315 1.28157,-1.47451 1.92649,-2.22416 0.64492,-0.75657 1.27744,-1.52965 2.03123,-2.20349 1.45383,-1.39319 2.89939,-2.8484 4.41386,-4.254 1.61092,-1.29399 3.24114,-2.60862 4.87963,-3.93016 1.64124,-1.19338 3.54018,-2.41984 5.31509,-3.63389 l 1.35324,-0.9095 1.39044,-0.79654 2.78364,-1.59438 c 0.93431,-0.52087 1.81901,-1.1176 2.79603,-1.58199 l 2.89251,-1.41524 c 0.96463,-0.47265 1.9265,-0.94534 2.88837,-1.41386 0.95635,-0.47266 1.97059,-0.80892 2.94349,-1.21818 0.98943,-0.39275 1.97059,-0.78412 2.94486,-1.1727 0.9729,-0.40517 1.9389,-0.80205 2.93936,-1.08593 1.983,-0.63387 3.94257,-1.25398 5.86493,-1.86721 3.93705,-0.88195 7.71839,-1.93065 11.4074,-2.31511 3.66145,-0.67387 7.17131,-0.67387 10.41521,-0.90124 3.26044,-0.0882 6.26043,-0.0524 8.90902,0.0194 2.64308,0.10471 4.94716,0.32107 6.82129,0.60907 1.87413,0.30869 3.36104,0.56501 4.3422,0.85302 0.99357,0.25217 1.52687,0.38862 1.52687,0.38862 0,0 -0.51677,-0.18743 -1.47864,-0.54846 -0.95773,-0.37208 -2.39916,-0.82959 -4.27881,-1.27057 -3.74413,-0.86952 -9.24801,-1.60267 -15.82125,-1.78593 -3.31281,0.0358 -6.93016,-0.1571 -10.70736,0.39687 -3.81028,0.2522 -7.73493,1.14515 -11.80841,1.98713 -1.9954,0.58018 -4.02663,1.16857 -6.07715,1.76943 -2.07533,0.55396 -4.04592,1.47034 -6.09231,2.22412 -1.01424,0.41204 -2.05879,0.75244 -3.04822,1.23334 -0.98943,0.47269 -1.98713,0.94947 -2.9807,1.42629 l -2.99585,1.43453 c -0.9977,0.47269 -1.94304,1.08589 -2.92006,1.62609 l -2.88837,1.69087 -1.44281,0.84885 -1.35323,0.92192 c -1.80661,1.26227 -3.54983,2.39917 -5.37986,3.74964 -1.68672,1.40698 -3.36104,2.80017 -5.01055,4.17819 -1.54341,1.49518 -3.0055,3.03721 -4.46622,4.51997 -0.76206,0.71659 -1.39871,1.53377 -2.04363,2.32339 -0.64493,0.7965 -1.28158,1.582 -1.91134,2.36333 -0.60772,0.79237 -1.28847,1.52273 -1.81763,2.34403 -0.54571,0.81305 -1.08177,1.61368 -1.61093,2.40743 -2.24345,3.08405 -3.82544,6.33349 -5.43085,9.22599 -0.72898,1.48138 -1.33808,2.95176 -1.94717,4.33391 -0.5774,1.39047 -1.20165,2.67204 -1.58199,3.97428 -0.81304,2.56452 -1.67845,4.74734 -2.10702,6.61459 -0.88608,3.72621 -1.35048,5.86493 -1.35048,5.86493"
       fill-opacity="1"
       fill-rule="nonzero"
       id="path156"
       style="stroke-width:0.352778" />
    <path
       fill="#e2e3c6"
       d="m 230.90506,163.21353 -18.37751,2.26826 c 0,0 -20.86213,-7.22369 -55.82296,3.18875 -14.34537,4.27468 -23.33707,13.37251 -28.92089,17.55899 -9.55394,7.16718 -12.0978,3.32518 -16.84514,11.18828 0,0 1.80661,-8.11664 9.67797,-15.71516 7.87548,-7.60402 15.23835,-17.85938 33.57177,-23.76424 18.33479,-5.90903 55.49084,-9.9398 76.71676,5.27512"
       fill-opacity="1"
       fill-rule="nonzero"
       id="path158"
       style="stroke-width:0.352778" />
    <path
       fill="#fafcdb"
       d="m 109.70522,197.41781 c 0,0 1.21818,-1.819 3.29627,-5.03534 1.0225,-1.62197 2.53559,-3.38173 4.11482,-5.49702 0.76068,-1.07347 1.76664,-2.07395 2.75608,-3.1805 1.01285,-1.08589 1.99815,-2.29168 3.13228,-3.44922 2.37849,-2.21865 4.82175,-4.75149 7.77902,-7.0032 0.71658,-0.58844 1.44556,-1.18096 2.17868,-1.78181 0.72898,-0.61324 1.56683,-1.09414 2.35507,-1.65915 0.80477,-0.54846 1.61506,-1.10518 2.43224,-1.6619 0.81304,-0.56914 1.62195,-1.15344 2.52318,-1.61922 1.75838,-0.97701 3.52503,-2.0188 5.34679,-2.99169 1.88378,-0.84614 3.79374,-1.69916 5.72024,-2.56456 1.88378,-0.73723 4.0349,-1.43866 6.05648,-2.16764 l 1.5434,-0.53192 1.54616,-0.41755 3.09645,-0.83647 c 1.03629,-0.26458 2.04226,-0.61736 3.10335,-0.8213 l 3.16122,-0.63253 c 1.05282,-0.21361 2.10288,-0.4258 3.14881,-0.63391 1.04455,-0.21636 2.11391,-0.28388 3.16398,-0.43268 1.05282,-0.12816 2.09875,-0.25633 3.14468,-0.38449 1.03767,-0.14746 2.07395,-0.28388 3.11575,-0.30868 2.07945,-0.10337 4.12998,-0.20807 6.14467,-0.31143 4.03076,0.14333 7.95541,0.0909 11.62513,0.65182 3.70968,0.2811 7.1093,1.16996 10.29808,1.77077 3.18051,0.74553 6.07301,1.5434 8.61274,2.28339 2.53145,0.77311 4.70187,1.56686 6.44922,2.32477 1.73357,0.77308 3.10472,1.39732 3.98115,1.92236 0.89297,0.50024 1.3739,0.76482 1.3739,0.76482 0,0 -0.44786,-0.31281 -1.28984,-0.90537 -0.82958,-0.60498 -2.11115,-1.41386 -3.81303,-2.31098 -3.40514,-1.79973 -8.5397,-3.89847 -14.85388,-5.74918 -3.20807,-0.80063 -6.66143,-1.90719 -10.45379,-2.33165 -3.74965,-0.72482 -7.77076,-0.85711 -11.92555,-1.07759 -2.07808,0.0523 -4.19337,0.10883 -6.33208,0.16809 -2.14423,0.008 -4.28295,0.39688 -6.45336,0.60498 -1.08176,0.14468 -2.18419,0.20807 -3.26044,0.41755 -1.07762,0.20807 -2.16352,0.41614 -3.24528,0.62424 l -3.26043,0.62837 c -1.09003,0.20119 -2.15939,0.55813 -3.23701,0.82959 l -3.22462,0.90537 -1.60954,0.45339 -1.54203,0.54843 c -2.06706,0.76069 -4.04592,1.41802 -6.15707,2.26 -1.99127,0.92879 -3.96187,1.85483 -5.91317,2.76708 -1.87,1.05421 -3.67247,2.17594 -5.46667,3.23702 -0.91364,0.50574 -1.73909,1.13002 -2.56453,1.73083 -0.82545,0.60495 -1.63849,1.20576 -2.4474,1.7997 -0.78824,0.61186 -1.63022,1.14515 -2.35093,1.80661 -0.73312,0.64908 -1.45797,1.28573 -2.17179,1.91823 -2.94762,2.41572 -5.30683,5.15662 -7.59437,7.54338 -1.08176,1.25402 -2.04225,2.52045 -2.9807,3.70279 -0.91226,1.19754 -1.84243,2.2793 -2.54248,3.44096 -1.43453,2.27517 -2.82498,4.16581 -3.71794,5.8608 -1.79835,3.38173 -2.79191,5.33164 -2.79191,5.33164"
       fill-opacity="1"
       fill-rule="nonzero"
       id="path160"
       style="stroke-width:0.352778" />
    <path
       fill="#e2e3c6"
       d="m 248.65008,191.74994 -20.06839,-2.58382 c 0,0 -20.12073,-13.29256 -59.9488,-11.74228 -16.3394,0.63666 -28.32006,7.83139 -35.36184,10.74872 -12.0537,4.99537 -13.70734,0.24391 -20.86212,7.27879 0,0 4.11069,-8.10009 14.50523,-14.00912 10.39454,-5.91319 20.96134,-14.77536 41.96678,-16.06106 21.00268,-1.28569 61.4233,4.51034 79.76914,26.36877"
       fill-opacity="1"
       fill-rule="nonzero"
       id="path162"
       style="stroke-width:0.352778" />
    <path
       fill="#fafcdb"
       d="m 111.10393,195.11925 c 0,0 1.78594,-1.59438 4.85483,-4.43865 1.51722,-1.4387 3.60081,-2.88978 5.84426,-4.70052 1.09278,-0.93292 2.43086,-1.71841 3.77307,-2.61962 1.36563,-0.87644 2.73954,-1.88242 4.254,-2.80434 3.11574,-1.70187 6.38445,-3.72205 10.12583,-5.30405 0.91777,-0.42859 1.8507,-0.85714 2.7919,-1.29399 0.93431,-0.45197 1.95544,-0.73723 2.94487,-1.12172 0.9977,-0.35966 2.00229,-0.72898 3.02066,-1.10106 1.01286,-0.37758 2.02985,-0.78133 3.10748,-1.02662 2.12769,-0.56088 4.27467,-1.18512 6.46988,-1.72254 2.22278,-0.38037 4.47725,-0.76895 6.7455,-1.1617 2.19935,-0.26733 4.66191,-0.42859 7.00181,-0.6532 l 1.77768,-0.14743 1.75148,-0.0208 3.50022,-0.0483 c 1.17409,0 2.33577,-0.10333 3.50986,-0.0275 l 3.52089,0.18468 c 1.16582,0.0592 2.33853,0.124 3.50022,0.18465 1.16582,0.0551 2.31097,0.27146 3.46576,0.39962 1.14515,0.14471 2.29444,0.29351 3.43269,0.44097 1.14102,0.12404 2.27515,0.26046 3.38034,0.52092 2.22691,0.45335 4.42625,0.89295 6.58977,1.32979 4.22507,1.24989 8.39501,2.25584 12.12536,3.84609 3.853,1.29812 7.2099,3.16124 10.42211,4.6633 3.16535,1.64677 6.00824,3.27283 8.4956,4.74733 2.4722,1.50622 4.55855,2.92834 6.19704,4.20578 1.62609,1.28708 2.90904,2.32474 3.69315,3.11711 0.81304,0.76895 1.24989,1.18237 1.24989,1.18237 0,0 -0.39275,-0.45751 -1.12173,-1.3105 -0.71246,-0.86543 -1.85072,-2.06706 -3.4079,-3.48093 -3.11712,-2.82497 -7.98435,-6.43819 -14.16486,-10.1038 -3.18051,-1.72254 -6.53741,-3.82954 -10.4345,-5.30405 -3.77307,-1.78731 -7.99124,-3.01653 -12.32931,-4.37113 -2.21588,-0.50436 -4.46622,-1.02115 -6.74963,-1.5379 -2.27101,-0.56913 -4.63848,-0.73727 -6.99354,-1.10518 -1.18649,-0.14058 -2.36747,-0.37345 -3.56499,-0.44097 -1.19889,-0.0731 -2.40054,-0.14884 -3.60495,-0.22049 l -3.62148,-0.21636 c -1.20578,-0.0841 -2.43637,0.004 -3.65318,0.004 l -5.48046,0.11991 -1.7818,0.16397 c -2.39641,0.24804 -4.66328,0.40929 -7.12997,0.72485 -2.35645,0.44923 -4.69084,0.89433 -7.00595,1.33392 -2.26412,0.60911 -4.47449,1.30641 -6.66144,1.94028 -1.10656,0.28801 -2.14698,0.72485 -3.18464,1.14103 -1.03767,0.41617 -2.06293,0.82959 -3.07716,1.23747 -1.00046,0.43685 -2.03812,0.77308 -2.97932,1.27882 -0.94947,0.48507 -1.88653,0.96464 -2.81671,1.43729 -3.7772,1.76389 -7.01422,4.02251 -10.0776,5.93386 -1.4869,1.02937 -2.8484,2.11113 -4.15891,3.10886 -1.28985,1.02111 -2.57142,1.91131 -3.62011,2.95172 -2.14285,2.02022 -4.12171,3.64631 -5.52869,5.1966 -2.81947,3.08818 -4.39732,4.88791 -4.39732,4.88791"
       fill-opacity="1"
       fill-rule="nonzero"
       id="path164"
       style="stroke-width:0.352778" />
    <path
       fill="#fafcdb"
       d="m 273.69039,203.55145 c -2.9724,-0.62011 -6.45333,-2.20349 -6.45333,-2.20349 1.66603,0.44514 4.23333,0.80204 6.073,1.02528 l -0.23287,-0.72072 c 0,0 -16.29118,-5.08773 -67.04296,-25.69489 -50.75177,-20.6072 -92.47877,16.37661 -92.47877,16.37661 v 19.67012 h 162.84966 l -2.71473,-8.45291"
       fill-opacity="1"
       fill-rule="nonzero"
       id="path166"
       style="stroke-width:0.352778" />
    <path
       fill="#e2e3c6"
       d="m -4.8607493,163.21353 18.3775183,2.26826 c 0,0 20.862122,-7.22369 55.827087,3.18875 14.341243,4.27468 23.332946,13.37251 28.912621,17.55899 9.558073,7.16718 12.106063,3.32518 16.847893,11.18828 0,0 -1.80247,-8.11664 -9.67658,-15.71516 -7.875489,-7.60402 -15.23835,-17.85938 -33.571771,-23.76424 -18.334798,-5.90903 -55.490844,-9.9398 -76.7167683,5.27512"
       fill-opacity="1"
       fill-rule="nonzero"
       id="path168"
       style="stroke-width:0.352778" />
    <path
       fill="#fafcdb"
       d="m 116.34323,197.41781 c 0,0 -1.22232,-1.819 -3.30178,-5.03534 -1.01699,-1.62197 -2.53559,-3.38173 -4.11344,-5.49702 -0.76068,-1.07347 -1.76665,-2.07395 -2.75608,-3.1805 -1.00872,-1.08589 -1.99816,-2.29168 -3.13228,-3.44922 -2.3785,-2.21865 -4.819001,-4.75149 -7.774895,-7.0032 -0.720714,-0.58844 -1.44556,-1.18096 -2.182812,-1.78181 -0.724846,-0.61324 -1.566828,-1.09414 -2.355067,-1.65915 -0.80202,-0.54846 -1.610925,-1.10518 -2.428103,-1.6619 -0.817178,-0.56914 -1.621952,-1.15344 -2.523187,-1.61922 -1.758378,-0.97701 -3.525023,-2.0188 -5.352302,-2.99169 -1.882401,-0.84614 -3.792362,-1.69916 -5.716101,-2.56456 -1.886536,-0.73723 -4.037655,-1.43866 -6.060613,-2.16764 l -1.542027,-0.53192 -1.546159,-0.41755 -3.09645,-0.83647 c -1.037664,-0.26458 -2.046387,-0.61736 -3.103344,-0.8213 l -3.161217,-0.63253 c -1.052823,-0.21361 -2.102888,-0.4258 -3.148821,-0.63391 -1.04455,-0.21636 -2.111153,-0.28388 -3.159841,-0.43268 -1.054199,-0.12816 -2.102884,-0.25633 -3.144683,-0.38449 -1.045929,-0.14746 -2.082214,-0.28388 -3.119878,-0.30868 -2.075325,-0.10337 -4.129981,-0.20807 -6.144674,-0.31143 -4.034896,0.14333 -7.955414,0.0909 -11.625129,0.65182 -3.709681,0.2811 -7.106543,1.16996 -10.298081,1.77077 -3.180511,0.74553 -6.0730135,1.5434 -8.6127385,2.28339 -2.5314559,0.77311 -4.7018684,1.56686 -6.44508461,2.32477 -1.73770579,0.77308 -3.10471979,1.39732 -3.98528849,1.92236 -0.8929688,0.50024 -1.3739037,0.76482 -1.3739037,0.76482 0,0 0.447862,-0.31281 1.2898438,-0.90537 0.8282024,-0.60498 2.1111564,-1.41386 3.81303063,-2.31098 3.40513477,-1.79973 8.53970627,-3.89847 14.85249887,-5.74918 3.213584,-0.80063 6.661437,-1.90719 10.455177,-2.33165 3.753775,-0.72482 7.770757,-0.85711 11.925541,-1.07759 2.082218,0.0523 4.189236,0.10883 6.332086,0.16809 2.14423,0.008 4.282945,0.39688 6.457488,0.60498 1.081762,0.14468 2.182813,0.20807 3.256305,0.41755 1.081758,0.20807 2.16352,0.41614 3.249416,0.62424 l 3.256301,0.62837 c 1.09003,0.20119 2.163523,0.55813 3.241146,0.82959 l 3.224611,0.90537 1.609549,0.45339 1.537889,0.54843 c 2.071194,0.76069 4.050055,1.41802 6.161211,2.26 1.987131,0.92879 3.957726,1.85483 5.909028,2.76708 1.869998,1.05421 3.67247,2.17594 5.466677,3.23702 0.913642,0.50574 1.739085,1.13002 2.568663,1.73083 0.819934,0.60495 1.634353,1.20576 2.443262,1.7997 0.792374,0.61186 1.634356,1.14515 2.355067,1.80661 0.728983,0.64908 1.453832,1.28573 2.166278,1.91823 2.957269,2.41572 5.312331,5.15662 7.595751,7.54338 1.08589,1.25402 2.04225,2.52045 2.97931,3.70279 0.91365,1.19754 1.84658,2.2793 2.54386,3.44096 1.43867,2.27517 2.82774,4.16581 3.71795,5.8608 1.80248,3.38173 2.79604,5.33164 2.79604,5.33164"
       fill-opacity="1"
       fill-rule="nonzero"
       id="path170"
       style="stroke-width:0.352778" />
    <path
       fill="#e2e3c6"
       d="m -22.601613,191.74994 20.0642371,-2.58382 c 0,0 20.1234939,-13.29256 59.9529329,-11.74228 16.335266,0.63666 28.315932,7.83139 35.357705,10.74872 12.057838,4.99537 13.711478,0.24391 20.862118,7.27879 0,0 -4.11068,-8.10009 -14.501093,-14.00912 -10.394542,-5.91319 -20.961341,-14.77536 -41.966775,-16.06106 -21.006818,-1.28569 -61.4233038,4.51034 -79.769125,26.36877"
       fill-opacity="1"
       fill-rule="nonzero"
       id="path172"
       style="stroke-width:0.352778" />
    <path
       fill="#fafcdb"
       d="m 114.94452,195.11925 c 0,0 -1.78594,-1.59438 -4.85483,-4.43865 -1.52135,-1.4387 -3.60495,-2.88978 -5.84426,-4.70052 -1.09692,-0.93292 -2.43086,-1.71841 -3.7772,-2.61962 -1.365637,-0.87644 -2.735406,-1.88242 -4.24987,-2.80434 -3.119879,-1.70187 -6.392722,-3.72205 -10.125828,-5.30405 -0.921907,-0.42859 -1.850704,-0.85714 -2.791904,-1.29399 -0.938446,-0.45197 -1.959572,-0.73723 -2.949,-1.12172 -0.993567,-0.35966 -2.002293,-0.72898 -3.02066,-1.10106 -1.012861,-0.37758 -2.025717,-0.78133 -3.103344,-1.02662 -2.127691,-0.56088 -4.27881,-1.18512 -6.474023,-1.72254 -2.222776,-0.38037 -4.474493,-0.76895 -6.7455,-1.1617 -2.199347,-0.26733 -4.661902,-0.42859 -7.00181,-0.6532 l -1.774913,-0.14743 -1.75011,-0.0208 -3.50435,-0.0483 c -1.169956,0 -2.331642,-0.10333 -3.509864,-0.0275 L 39.9503,167.1119 c -1.169955,0.0592 -2.338532,0.124 -3.504353,0.18465 -1.165818,0.0551 -2.312346,0.27146 -3.465763,0.39962 -1.145152,0.14471 -2.290301,0.29351 -3.42856,0.44097 -1.141017,0.12404 -2.279276,0.26046 -3.384462,0.52092 -2.226909,0.45335 -4.42626,0.89295 -6.58978,1.32979 -4.226443,1.24989 -8.396386,2.25584 -12.1253606,3.84609 -3.8488587,1.29812 -7.20576172,3.16124 -10.4221004,4.6633 -3.1653553,1.64677 -6.0082469,3.27283 -8.496985,4.74733 -2.470824,1.50622 -4.554418,2.92834 -6.19566,4.20578 -1.627463,1.28708 -2.904907,2.32474 -3.693143,3.11711 -0.814422,0.76895 -1.245746,1.18237 -1.245746,1.18237 0,0 0.388606,-0.45751 1.117589,-1.3105 0.712446,-0.86543 1.85346,-2.06706 3.412021,-3.48093 3.117124,-2.82497 7.978843,-6.43819 14.1648579,-10.1038 3.18051064,-1.72254 6.5332791,-3.82954 10.4303696,-5.30405 3.7772025,-1.78731 7.9953775,-3.01653 12.3334435,-4.37113 2.214506,-0.50436 4.466223,-1.02115 6.745496,-1.5379 2.271007,-0.56913 4.642612,-0.73727 6.997679,-1.10518 1.182356,-0.14058 2.363336,-0.37345 3.560851,-0.44097 1.20165,-0.0731 2.403299,-0.14884 3.604948,-0.22049 l 3.621487,-0.21636 c 1.20578,-0.0841 2.434992,0.004 3.653176,0.004 l 3.657315,0.0799 1.823145,0.04 1.781803,0.16397 c 2.395029,0.24804 4.667416,0.40929 7.129971,0.72485 2.355067,0.44923 4.694975,0.89433 7.005945,1.33392 2.264117,0.60911 4.478627,1.30641 6.661439,1.94028 1.109321,0.28801 2.146981,0.72485 3.184645,1.14103 1.03353,0.41617 2.062925,0.82959 3.077161,1.23747 1.000453,0.43685 2.038118,0.77308 2.979318,1.27882 0.94947,0.48507 1.890667,0.96464 2.816709,1.43729 3.777206,1.76389 7.014217,4.02251 10.081729,5.93386 1.486902,1.02937 2.844275,2.11113 4.157545,3.10886 1.28984,1.02111 2.56866,1.91131 3.61735,2.95172 2.14285,2.02022 4.12584,3.64631 5.52455,5.1966 2.8236,3.08818 4.40559,4.88791 4.40559,4.88791"
       fill-opacity="1"
       fill-rule="nonzero"
       id="path174"
       style="stroke-width:0.352778" />
    <path
       fill="#fafcdb"
       d="m 21.075309,175.95763 c -50.751772,20.60716 -67.042941,25.69489 -67.042941,25.69489 l -0.356912,1.11347 c 1.411111,-0.0317 3.734484,0.39687 5.496997,-0.15159 0,0 -3.073026,1.14103 -5.969663,1.6178 l -2.494249,7.77216 H 113.55546 v -19.67012 c 0,0 -41.724245,-36.98381 -92.480151,-16.37661"
       fill-opacity="1"
       fill-rule="nonzero"
       id="path176"
       style="stroke-width:0.352778" />
    <path
       fill="#fbc127"
       d="m 134.893,219.73651 c 0.29628,-1.3987 0.45613,-2.8484 0.45613,-4.33804 0,-11.82222 -9.75788,-26.59341 -21.79367,-26.59341 -12.03303,0 -21.79092,14.77119 -21.79092,26.59341 0,1.48964 0.155716,2.93934 0.456131,4.33804 H 134.893"
       fill-opacity="1"
       fill-rule="nonzero"
       id="path178"
       style="stroke-width:0.352778" />
    <path
       fill="#191b38"
       d="m 132.16173,219.73651 c 0.26045,-1.21818 0.3955,-2.48321 0.3955,-3.78132 0,-10.30775 -8.50801,-23.18826 -19.00177,-23.18826 -10.49514,0 -18.999016,12.88051 -18.999016,23.18826 0,1.29811 0.135047,2.56314 0.395496,3.78132 h 37.20979"
       fill-opacity="1"
       fill-rule="nonzero"
       id="path180"
       style="stroke-width:0.352778" />
    <path
       fill="#f9a73b"
       d="m 135.34913,224.02636 c 0,0 -4.46622,6.0096 -21.79367,6.0096 -20.013252,0 -21.79092,-6.0096 -21.79092,-6.0096 v -12.022 c 0,0 4.229199,6.0096 21.79092,6.0096 16.01005,0 21.79367,-6.0096 21.79367,-6.0096 v 12.022"
       fill-opacity="1"
       fill-rule="nonzero"
       id="path182"
       style="stroke-width:0.352778" />
    <path
       fill="#f9a73b"
       d="M 91.76454,224.02636 H -56.257444 v -12.022 H 91.76454 v 12.022"
       fill-opacity="1"
       fill-rule="nonzero"
       id="path184"
       style="stroke-width:0.352778" />
    <path
       fill="#f9a73b"
       d="M 283.37527,224.02636 H 135.34913 v -12.022 h 148.02614 v 12.022"
       fill-opacity="1"
       fill-rule="nonzero"
       id="path186"
       style="stroke-width:0.352778" />
    <path
       fill="#e2e3c6"
       d="m 17.751482,190.85558 c 0,0 4.36976,-2.2145 11.323339,-4.56266 3.472656,-1.18099 7.583346,-2.40329 12.057835,-3.44512 2.242069,-0.5002 4.565443,-1.02111 6.953582,-1.40144 2.386761,-0.38174 4.823133,-0.73727 7.277418,-0.97427 2.451531,-0.23565 4.923734,-0.34039 7.354592,-0.38449 2.436372,-0.0482 4.83967,0.11162 7.154775,0.3321 2.319239,0.24116 4.550283,0.61324 6.629742,1.14653 1.037665,0.26458 2.046387,0.50437 2.999991,0.86127 0.957735,0.31973 1.874132,0.64908 2.723004,1.04871 0.865406,0.36932 1.682584,0.72622 2.415699,1.17408 0.741383,0.42855 1.462098,0.78962 2.067059,1.25814 0.617361,0.4451 1.214049,0.8213 1.718412,1.23748 0.48507,0.43684 0.930176,0.84197 1.333941,1.20579 0.829578,0.69039 1.289844,1.43041 1.686719,1.83967 0.367937,0.43684 0.569129,0.66421 0.569129,0.66421 0,0 -0.241155,-0.1874 -0.689017,-0.54843 -0.4644,-0.33211 -1.050068,-0.92467 -1.959571,-1.47451 -0.439593,-0.28388 -0.924663,-0.60085 -1.457964,-0.94121 -0.544325,-0.31281 -1.161687,-0.61323 -1.802476,-0.95359 -0.624251,-0.36382 -1.3615,-0.61599 -2.107018,-0.92467 -0.741387,-0.32935 -1.550296,-0.59669 -2.403299,-0.85714 -0.832337,-0.29351 -1.73495,-0.514 -2.667882,-0.7221 -0.924666,-0.24391 -1.903074,-0.41618 -2.903527,-0.5884 -2.003669,-0.35694 -4.150653,-0.52917 -6.373428,-0.68905 -1.109321,-0.0648 -2.247579,-0.0675 -3.388597,-0.1047 -1.153418,0.0166 -2.315104,0.0332 -3.489191,0.0482 -2.346801,0.0758 -4.730807,0.21636 -7.113436,0.47678 -2.38814,0.19294 -4.768011,0.50437 -7.110678,0.84201 -2.335773,0.35966 -4.642609,0.70002 -6.861249,1.11344 -4.44693,0.80892 -8.581045,1.69086 -12.125361,2.47908 -7.085874,1.61095 -11.812543,2.84427 -11.812543,2.84427"
       fill-opacity="1"
       fill-rule="nonzero"
       id="path188"
       style="stroke-width:0.352778" />
    <path
       fill="#e2e3c6"
       d="m 209.61575,190.85558 c 0,0 -4.37527,-2.2145 -11.32885,-4.56266 -3.46852,-1.18099 -7.57921,-2.40329 -12.05646,-3.44512 -2.24344,-0.5002 -4.56268,-1.02111 -6.95496,-1.40144 -2.38676,-0.38174 -4.82175,-0.73727 -7.27328,-0.97427 -2.45567,-0.23565 -4.92373,-0.34039 -7.35873,-0.38449 -2.43499,-0.0482 -4.83554,0.11162 -7.15477,0.3321 -2.31511,0.24116 -4.54615,0.61324 -6.62561,1.14653 -1.04042,0.26458 -2.05466,0.50437 -3.00412,0.86127 -0.95223,0.31973 -1.87,0.64908 -2.72301,1.04871 -0.86127,0.36932 -1.68258,0.72622 -2.4157,1.17408 -0.74138,0.42855 -1.45796,0.78962 -2.06706,1.25814 -0.61736,0.4451 -1.21405,0.8213 -1.71841,1.23748 -0.48507,0.43684 -0.9288,0.84197 -1.32981,1.20579 -0.83371,0.69039 -1.29397,1.43041 -1.69085,1.83967 -0.36794,0.43684 -0.565,0.66421 -0.565,0.66421 0,0 0.24116,-0.1874 0.68627,-0.54843 0.4644,-0.33211 1.05282,-0.92467 1.95819,-1.47451 0.44097,-0.28388 0.92466,-0.60085 1.45796,-0.94121 0.54846,-0.31281 1.16583,-0.61323 1.80248,-0.95359 0.62563,-0.36382 1.3615,-0.61599 2.11115,-0.92467 0.74139,-0.32935 1.54616,-0.59669 2.39917,-0.85714 0.83371,-0.29351 1.73495,-0.514 2.67201,-0.7221 0.92191,-0.24391 1.89894,-0.41618 2.90353,-0.5884 2.00367,-0.35694 4.15065,-0.52917 6.36516,-0.68905 1.11345,-0.0648 2.25171,-0.0675 3.39686,-0.1047 1.15066,0.0166 2.31511,0.0332 3.48506,0.0482 2.34818,0.0758 4.73494,0.21636 7.11895,0.47678 2.38676,0.19294 4.76663,0.50437 7.10516,0.84201 2.33578,0.35966 4.64261,0.70002 6.86539,1.11344 4.4428,0.80892 8.58104,1.69086 12.12536,2.47908 7.08312,1.61095 11.81392,2.84427 11.81392,2.84427"
       fill-opacity="1"
       fill-rule="nonzero"
       id="path190"
       style="stroke-width:0.352778" />
    <path
       fill="#e2e3c6"
       d="m -20.679249,202.45039 c 0,0 1.758375,-0.12812 4.830022,-0.35277 3.073026,-0.18052 7.4551893,-0.55672 12.7179144,-0.84886 5.264108,-0.31281 11.3963775,-0.79375 17.9627296,-1.26643 3.275598,-0.26871 6.664195,-0.5333 10.085864,-0.8902 3.445094,-0.34036 6.813021,-0.84886 10.278788,-1.53378 3.456118,-0.64904 6.932909,-1.28157 10.373872,-1.79832 3.449229,-0.49748 6.862629,-0.88607 10.179566,-1.12172 6.632501,-0.44098 12.894307,-0.18465 18.148767,0.76069 5.268239,0.94118 9.429916,2.68852 12.101929,4.25397 0.676618,0.37345 1.254016,0.74966 1.741841,1.1066 0.500228,0.3321 0.913641,0.62836 1.230591,0.89707 0.64492,0.51679 0.989429,0.79375 0.989429,0.79375 0,0 -0.369313,-0.24528 -1.054199,-0.69726 -0.340374,-0.23703 -0.777212,-0.49336 -1.302244,-0.77724 -0.512632,-0.30452 -1.113455,-0.62562 -1.80661,-0.94947 -2.723004,-1.39044 -6.92602,-2.72436 -12.092285,-3.41337 -2.579688,-0.34865 -5.407424,-0.52917 -8.400521,-0.52504 -2.991722,-0.008 -6.144673,0.19706 -9.400978,0.49333 -6.513986,0.61323 -13.394532,1.83003 -20.288858,3.17637 -3.42856,0.72898 -7.029373,1.2058 -10.478602,1.53102 -3.469901,0.3514 -6.877791,0.54847 -10.178193,0.72898 -6.5980456,0.38033 -12.7620121,0.4396 -18.0385202,0.5443 -5.2792634,0.11579 -9.6807168,0.004 -12.7578778,-0.004 -3.079916,-0.0358 -4.842425,-0.10749 -4.842425,-0.10749"
       fill-opacity="1"
       fill-rule="nonzero"
       id="path192"
       style="stroke-width:0.352778" />
    <path
       fill="#e2e3c6"
       d="m 251.09056,202.45039 c 0,0 -1.75976,-0.12812 -4.83139,-0.35277 -3.07303,-0.18052 -7.45519,-0.55672 -12.72205,-0.84886 -5.25998,-0.31281 -11.39638,-0.79375 -17.95722,-1.26643 -3.27698,-0.26871 -6.66971,-0.5333 -10.08724,-0.8902 -3.44372,-0.34036 -6.81302,-0.84886 -10.27741,-1.53378 -3.4575,-0.64904 -6.93429,-1.28157 -10.37938,-1.79832 -3.4451,-0.49748 -6.85712,-0.88607 -10.17406,-1.12172 -6.63801,-0.44098 -12.8943,-0.18465 -18.15014,0.76069 -5.26686,0.94118 -9.43268,2.68852 -12.10056,4.25397 -0.67799,0.37345 -1.25814,0.74966 -1.74321,1.1066 -0.50437,0.3321 -0.9164,0.62836 -1.22922,0.89707 -0.64905,0.51679 -0.99356,0.79375 -0.99356,0.79375 0,0 0.37207,-0.24528 1.05696,-0.69726 0.34037,-0.23703 0.77721,-0.49336 1.29811,-0.77724 0.51263,-0.30452 1.11759,-0.62562 1.81074,-0.94947 2.72438,-1.39044 6.92188,-2.72436 12.08953,-3.41337 2.58382,-0.34865 5.41155,-0.52917 8.40328,-0.52504 2.98896,-0.008 6.14467,0.19706 9.40097,0.49333 6.50986,0.61323 13.39591,1.83003 20.28886,3.17637 3.42994,0.72898 7.03075,1.2058 10.47998,1.53102 3.46439,0.3514 6.87366,0.54847 10.17406,0.72898 6.59667,0.38033 12.76201,0.4396 18.04128,0.5443 5.27513,0.11579 9.67796,0.004 12.75787,-0.004 3.08129,-0.0358 4.8438,-0.10749 4.8438,-0.10749"
       fill-opacity="1"
       fill-rule="nonzero"
       id="path194"
       style="stroke-width:0.352778" />
    <path
       fill="#ffffff"
       d="m 66.640146,80.33142 c -0.332109,0 -0.657324,0.02328 -0.981163,0.04685 C 64.272675,69.053537 54.642945,60.275438 42.946157,60.275438 c -9.420272,0 -17.507978,5.696797 -21.020597,13.829983 -2.247583,-1.10931 -4.77077,-1.751471 -7.442786,-1.751471 -6.1488081,0 -11.5052416,3.297626 -14.45286589,8.208963 -0.78134638,-0.147426 -1.58198621,-0.231493 -2.40743331,-0.231493 -7.1106775,0 -12.8708758,5.760191 -12.8708758,12.870851 0,7.106569 5.7601983,12.872259 12.8708758,12.872259 2.93660001,0 5.6361792,-0.99356 7.8024536,-2.65271 2.6196504,1.67157 5.7202356,2.65271 9.0578456,2.65271 5.210362,0 9.869509,-2.36745 12.957694,-6.081286 4.081749,3.762056 9.518111,6.081286 15.505689,6.081286 5.188313,0 9.954948,-1.74734 13.792782,-4.65088 2.359202,2.84015 5.920053,4.65088 9.901207,4.65088 7.110677,0 12.870876,-5.76569 12.870876,-12.872259 0,-7.11066 -5.760199,-12.870851 -12.870876,-12.870851"
       fill-opacity="1"
       fill-rule="nonzero"
       id="path196"
       style="stroke-width:0.352778" />
    <path
       fill="#ffffff"
       d="m 222.16141,26.53693 c -0.33348,0 -0.65732,0.02755 -0.98254,0.05099 -1.38079,-11.324718 -11.01053,-20.1028245 -22.71145,-20.1028245 -9.42165,0 -17.50935,5.6968115 -21.02197,13.8299935 -2.24758,-1.10932 -4.77077,-1.751488 -7.44279,-1.751488 -6.14467,0 -11.50386,3.297647 -14.44873,8.208977 -0.7841,-0.147451 -1.58612,-0.235645 -2.41157,-0.235645 -7.10516,0 -12.8695,5.764333 -12.8695,12.87501 0,7.106543 5.76434,12.872255 12.8695,12.872255 2.94074,0 5.63618,-0.993563 7.80797,-2.652723 2.61552,1.670184 5.7161,2.652723 9.05233,2.652723 5.21174,0 9.87089,-2.36747 12.96321,-6.085417 4.07761,3.766178 9.5126,6.085417 15.50155,6.085417 5.18694,0 9.95357,-1.747351 13.79141,-4.650878 2.36333,2.840137 5.92005,4.650878 9.90258,4.650878 7.1093,0 12.87363,-5.765712 12.87363,-12.872255 0,-7.110677 -5.76433,-12.87501 -12.87363,-12.87501"
       fill-opacity="1"
       fill-rule="nonzero"
       id="path198"
       style="stroke-width:0.352778" />
    <path
       fill="#fbe6ef"
       d="m -42.926299,151.73721 c 0.303166,-4.63434 -7.694966,-8.64443 -12.219066,-8.95724 -0.410655,-0.0289 -0.817178,-0.0233 -1.216809,0.01 -0.157095,-4.14652 -3.347254,-7.58748 -7.47999,-7.87411 -1.231967,-0.084 -2.417081,0.11991 -3.491949,0.55675 -2.414324,-3.4575 -6.265941,-5.82499 -10.732164,-6.13367 -6.994922,-0.48091 -13.157509,4.24575 -14.867655,10.9444 -1.08865,-0.57051 -2.30408,-0.92742 -3.600814,-1.01699 -5.118034,-0.35278 -9.547044,3.61043 -9.892934,8.8525 -0.34313,5.24207 3.52502,9.7772 8.64581,10.12998 0.595312,0.0413 1.183735,0.0219 1.754243,-0.0496 0.345887,4.08316 3.55396,7.40834 7.668783,7.69222 1.526866,0.10474 2.984831,-0.22186 4.258138,-0.8792 1.478635,2.38125 4.004579,4.03353 6.964605,4.2375 3.963238,0.27284 7.497908,-2.13596 8.909019,-5.71475 1.205784,1.05008 2.738162,1.72808 4.44004,1.84658 3.716567,0.25495 6.988031,-2.24758 7.909938,-5.80016 4.365625,0.10061 12.654524,-3.33622 12.950805,-7.84381 z m 0,0"
       fill-opacity="1"
       fill-rule="nonzero"
       id="path212"
       style="stroke-width:0.352778" />
    <path
       fill="#fad5e5"
       d="m -63.318511,168.12487 c 1.418001,-4.9651 -1.446939,-10.192 -6.399608,-11.67614 -0.449241,-0.13504 -0.901238,-0.2329 -1.351857,-0.29905 0.793749,-4.55026 -1.947168,-9.10329 -6.471268,-10.45654 -1.347721,-0.40376 -2.710601,-0.48094 -4.005957,-0.27697 -1.87551,-4.37529 -5.601726,-7.92236 -10.489628,-9.3872 -7.655002,-2.29168 -15.596641,1.29674 -19.056891,8.1511 -1.07487,-0.89436 -2.34266,-1.59028 -3.76204,-2.01609 -5.60173,-1.67707 -11.44186,1.51448 -13.04589,7.13275 -1.60404,5.61686 1.63711,11.52864 7.23883,13.20712 0.65044,0.19427 1.30638,0.32381 1.96095,0.38996 -0.56775,4.52825 2.22002,8.95865 6.72207,10.30637 1.67018,0.50158 3.36517,0.51262 4.93476,0.11987 1.08451,2.96418 3.50435,5.40053 6.74412,6.3693 4.33806,1.29811 8.822197,-0.42993 11.224118,-3.966 1.094162,1.44695 2.638943,2.57281 4.500673,3.1309 4.065213,1.2168 8.28201,-0.67938 10.131337,-4.31186 4.824513,1.21267 9.745488,-1.59029 11.126281,-6.41752 z m 0,0"
       fill-opacity="1"
       fill-rule="nonzero"
       id="path216"
       style="stroke-width:0.352778" />
    <path
       fill="#ffffff"
       d="m -54.358505,163.38854 c -0.23289,-3.61872 -3.31694,-6.36241 -6.887436,-6.12813 -0.32246,0.0219 -0.63941,0.0675 -0.94947,0.13366 -0.545701,-3.19292 -3.389972,-5.52182 -6.651788,-5.30683 -0.970139,0.0648 -1.87689,0.34589 -2.674774,0.7965 -2.239312,-2.42535 -5.49286,-3.85159 -9.015126,-3.6201 -5.517665,0.36103 -9.852974,4.66742 -10.50892,10.02936 -0.908127,-0.3266 -1.897559,-0.47543 -2.918685,-0.40791 -4.03903,0.26321 -7.096896,3.7979 -6.832316,7.88927 0.26321,4.09004 3.751022,7.19614 7.790052,6.93018 0.469911,-0.0318 0.928798,-0.10611 1.367014,-0.22186 0.686263,3.12124 3.531913,5.36057 6.779949,5.14696 1.205783,-0.0799 2.31097,-0.48645 3.241146,-1.12861 1.398709,1.68533 3.541558,2.69956 5.875955,2.5466 3.126769,-0.20394 5.645824,-2.44327 6.383073,-5.35781 1.051444,0.68488 2.31786,1.0487 3.661449,0.96188 2.931087,-0.19293 5.235167,-2.47357 5.592079,-5.31647 3.423045,-0.37758 5.975174,-3.42857 5.747798,-6.94669 z m 0,0"
       fill-opacity="1"
       fill-rule="nonzero"
       id="path218"
       style="stroke-width:0.352778" />
    <path
       fill="#ffffff"
       d="m -131.57826,159.27233 c 0.22876,-4.01697 3.57188,-7.08586 7.46483,-6.85299 0.35416,0.0233 0.70005,0.0689 1.03767,0.14333 0.57188,-3.54845 3.65593,-6.15293 7.21127,-5.93936 1.05971,0.0634 2.05052,0.3707 2.92006,0.86543 2.42397,-2.70647 5.9614,-4.31602 9.80475,-4.08453 6.01789,0.35969 10.774878,5.10702 11.525909,11.05189 0.988054,-0.36794 2.062923,-0.5402 3.179135,-0.47406 4.405588,0.26321 7.763867,4.16169 7.504796,8.70508 -0.259071,4.54339 -4.03903,8.01327 -8.443241,7.75144 -0.514008,-0.0303 -1.012858,-0.11024 -1.491037,-0.23424 -0.727604,3.46851 -3.813032,5.97379 -7.35459,5.76294 -1.313271,-0.0772 -2.523192,-0.52088 -3.540182,-1.22643 -1.51171,1.88376 -3.84197,3.02341 -6.38858,2.87044 -3.40927,-0.20394 -6.16948,-2.6665 -6.9963,-5.89939 -1.13964,0.77032 -2.51906,1.18237 -3.98253,1.09417 -3.1943,-0.19156 -5.723,-2.70647 -6.13503,-5.8608 -3.73586,-0.39963 -6.53742,-3.76481 -6.31693,-7.67292 z m 0,0"
       fill-opacity="1"
       fill-rule="nonzero"
       id="path220"
       style="stroke-width:0.352778" />
    <g
       clip-path="url(#id8)"
       id="g224"
       transform="matrix(0.3527778,0,0,0.3527778,-105.83926,-298.98603)">
      <path
         fill="#fbe6ef"
         d="m 1353.3125,1125.8281 c 0.8633,-13.1367 -21.8125,-24.5 -34.6367,-25.3867 -1.1602,-0.082 -2.3164,-0.07 -3.4492,0.023 -0.4453,-11.7539 -9.4883,-21.5078 -21.2032,-22.3164 -3.4921,-0.2421 -6.8515,0.336 -9.8984,1.5782 -6.8437,-9.8047 -17.7617,-16.5157 -30.4219,-17.3907 -19.8281,-1.3632 -37.2968,12.0391 -42.1445,31.0235 -3.082,-1.6172 -6.5313,-2.6289 -10.207,-2.8789 -14.5078,-1 -27.0625,10.2304 -28.043,25.0898 -0.9727,14.8594 9.9922,27.7149 24.5078,28.7149 1.6914,0.1211 3.3555,0.062 4.9727,-0.1368 0.9804,11.5704 10.0742,20.9961 21.7382,21.8008 4.3282,0.2969 8.461,-0.6289 12.0743,-2.4883 4.1875,6.7461 11.3476,11.4297 19.7382,12.0079 11.2344,0.7734 21.254,-6.0547 25.254,-16.1993 3.4179,2.9766 7.7656,4.8985 12.5859,5.2344 10.5351,0.7227 19.8125,-6.3711 22.4219,-16.4414 12.375,0.2852 35.8711,-9.457 36.7109,-22.2344 z m 0,0"
         fill-opacity="1"
         fill-rule="nonzero"
         id="path222" />
    </g>
    <g
       clip-path="url(#id9)"
       id="g228"
       transform="matrix(0.3527778,0,0,0.3527778,-105.83926,-298.98603)">
      <path
         fill="#fbe6ef"
         d="m 1230.7891,1118.3945 c 0.8242,-12.5078 -8.4141,-23.332 -20.625,-24.1757 -1.1133,-0.074 -2.2032,-0.067 -3.2774,0.019 -0.4219,-11.1914 -9.039,-20.4805 -20.1914,-21.25 -3.3242,-0.2266 -6.5195,0.3203 -9.4297,1.5039 -6.5195,-9.3399 -16.914,-15.7266 -28.9726,-16.5586 -18.8789,-1.3008 -35.5117,11.4609 -40.125,29.5391 -2.9414,-1.5352 -6.2188,-2.5039 -9.7188,-2.7422 -13.8164,-0.9492 -25.7695,9.7461 -26.6992,23.8906 -0.9297,14.1484 9.5156,26.3867 23.332,27.3437 1.6094,0.1133 3.1914,0.062 4.7383,-0.1328 0.9336,11.0196 9.5899,19.9922 20.6992,20.7618 4.1211,0.2812 8.0586,-0.5977 11.4961,-2.3711 3.9883,6.4257 10.8086,10.8828 18.7891,11.4375 10.6953,0.7343 20.2383,-5.7657 24.0508,-15.4258 3.2539,2.8359 7.3906,4.664 11.9843,4.9804 10.0235,0.6915 18.8594,-6.0703 21.3477,-15.6523 11.7891,0.2695 21.8047,-9.0039 22.6016,-21.168 z m 0,0"
         fill-opacity="1"
         fill-rule="nonzero"
         id="path226" />
    </g>
    <g
       clip-path="url(#id10)"
       id="g232"
       transform="matrix(0.3527778,0,0,0.3527778,-105.83926,-298.98603)">
      <path
         fill="#fad5e5"
         d="m 1295.5078,1172.2813 c 4.0195,-14.0743 -4.1015,-28.8907 -18.1406,-33.0977 -1.2734,-0.3828 -2.5547,-0.6602 -3.832,-0.8477 2.25,-12.8984 -5.5196,-25.8046 -18.3438,-29.6406 -3.8203,-1.1445 -7.6836,-1.3633 -11.3555,-0.7851 -5.3125,-12.4024 -15.8789,-22.4571 -29.7343,-26.6055 -21.6993,-6.4961 -44.2071,3.6719 -54.0196,23.1016 -3.0468,-2.5313 -6.6367,-4.5079 -10.664,-5.7149 -15.8789,-4.7539 -32.4336,4.2969 -36.9805,20.2188 -4.5469,15.9218 4.6406,32.6836 20.5195,37.4375 1.8438,0.5507 3.7032,0.9179 5.5586,1.1054 -1.6093,12.836 6.293,25.3946 19.0547,29.2188 4.7344,1.4219 9.5391,1.4531 13.9883,0.3398 3.0742,8.3985 9.9336,15.3047 19.1172,18.0547 12.2969,3.6797 25.0078,-1.2226 31.8164,-11.2461 3.1055,4.1016 7.4805,7.2969 12.7578,8.875 11.5234,3.4531 23.4766,-1.9258 28.7227,-12.2187 13.6718,3.4336 27.6211,-4.5118 31.5351,-18.1953 z m 0,0"
         fill-opacity="1"
         fill-rule="nonzero"
         id="path230" />
    </g>
    <g
       clip-path="url(#id11)"
       id="g236"
       transform="matrix(0.3527778,0,0,0.3527778,-105.83926,-298.98603)">
      <path
         fill="#ffffff"
         d="m 1320.9063,1158.8555 c -0.6602,-10.2578 -9.4024,-18.0352 -19.5196,-17.3672 -0.9179,0.062 -1.8164,0.1875 -2.6953,0.375 -1.5469,-9.0508 -9.6094,-15.6524 -18.8555,-15.043 -2.75,0.1836 -5.3203,0.9805 -7.582,2.2578 -6.3476,-6.8711 -15.5703,-10.9179 -25.5547,-10.2617 -15.6406,1.0234 -27.9297,13.2305 -29.789,28.4297 -2.5743,-0.9219 -5.375,-1.3438 -8.2735,-1.1563 -11.4492,0.75 -20.1172,10.7657 -19.3672,22.3633 0.7461,11.5938 10.6328,20.3985 22.0821,19.6446 1.332,-0.086 2.6328,-0.3008 3.875,-0.6289 1.9453,8.8476 10.0117,15.1953 19.2187,14.5898 3.418,-0.2266 6.5508,-1.375 9.1875,-3.1992 3.9649,4.7773 10.0391,7.6523 16.6563,7.2187 8.8632,-0.5781 16.0039,-6.9258 18.0976,-15.1875 2.9766,1.9414 6.5664,2.9727 10.375,2.7305 8.3086,-0.5469 14.8399,-7.0117 15.8516,-15.0742 9.7031,-1.0703 16.9375,-9.7188 16.293,-19.6914 z m 0,0"
         fill-opacity="1"
         fill-rule="nonzero"
         id="path234" />
    </g>
    <g
       clip-path="url(#id12)"
       id="g240"
       transform="matrix(0.3527778,0,0,0.3527778,-105.83926,-298.98603)">
      <path
         fill="#ffffff"
         d="m 1102.0156,1147.1914 c 0.6485,-11.3906 10.125,-20.0859 21.1602,-19.4258 1.0078,0.062 1.9844,0.1953 2.9414,0.4024 1.6211,-10.0586 10.3633,-17.4414 20.4414,-16.836 3.0039,0.1836 5.8125,1.0508 8.2773,2.4532 6.8711,-7.6719 16.8985,-12.2305 27.793,-11.5782 17.0586,1.0196 30.543,14.4766 32.6719,31.3321 2.8008,-1.0469 5.8476,-1.5352 9.0156,-1.3477 12.4844,0.75 22.0039,11.7969 21.2695,24.6758 -0.7343,12.8789 -11.4492,22.7148 -23.9336,21.9726 -1.457,-0.086 -2.871,-0.3125 -4.2265,-0.664 -2.0625,9.8359 -10.8086,16.9336 -20.8477,16.3359 -3.7226,-0.2187 -7.1523,-1.4765 -10.0351,-3.4765 -4.2852,5.3398 -10.8907,8.5703 -18.1094,8.1367 -9.6641,-0.5781 -17.4883,-7.5586 -19.832,-16.7227 -3.2305,2.1836 -7.1407,3.3555 -11.2852,3.1016 -9.0586,-0.5391 -16.2266,-7.6719 -17.3945,-16.6133 -10.586,-1.1328 -18.5313,-10.6719 -17.9063,-21.7461 z m 0,0"
         fill-opacity="1"
         fill-rule="nonzero"
         id="path238" />
    </g>
  </g>
</svg>
